<?xml version="1.0" standalone="no"?>
<!DOCTYPE svg PUBLIC "-//W3C//DTD SVG 20010904//EN"
 "http://www.w3.org/TR/2001/REC-SVG-20010904/DTD/svg10.dtd">
<svg version="1.0" xmlns="http://www.w3.org/2000/svg"
 width="2036.000000pt" height="763.000000pt" viewBox="0 0 2036.000000 763.000000"
 preserveAspectRatio="xMidYMid meet">
<metadata>
Created by potrace 1.15, written by Peter Selinger 2001-2017
</metadata>
<g transform="translate(0.000000,763.000000) scale(0.100000,-0.100000)"
fill="#FFFFFF" stroke="none">
<path d="M3250 6604 c-193 -21 -251 -29 -355 -51 -516 -107 -977 -356 -1356
-733 -227 -225 -374 -425 -508 -690 -148 -292 -227 -545 -278 -885 -21 -140
-23 -516 -4 -665 81 -634 357 -1193 802 -1625 425 -413 927 -659 1529 -751
144 -22 558 -26 695 -6 136 20 290 51 390 79 646 179 1180 569 1554 1136 39
60 71 113 71 118 0 5 -554 10 -1272 12 -1398 4 -1292 -1 -1498 64 -102 32
-259 111 -355 178 -38 27 -118 97 -176 155 -194 192 -316 418 -376 692 -25
116 -25 409 0 525 57 263 177 490 357 677 193 200 433 334 710 393 115 24 473
25 637 0 702 -104 1316 -452 1747 -992 216 -270 363 -546 471 -880 l42 -130
11 40 c7 22 21 93 32 157 151 886 -126 1764 -755 2393 -419 419 -948 683
-1545 770 -99 15 -492 28 -570 19z m386 -184 c340 -27 622 -104 929 -254 251
-123 467 -278 671 -481 422 -421 678 -967 733 -1565 18 -187 18 -186 -40 -89
-453 746 -1206 1248 -2060 1373 -176 26 -407 36 -584 25 -932 -56 -1751 -530
-2267 -1314 -54 -82 -100 -150 -102 -152 -1 -2 -1 23 1 55 43 666 299 1233
759 1683 211 205 389 331 645 459 222 110 389 168 619 215 244 50 460 63 696
45z"/>
<path d="M3355 4849 c-391 -32 -730 -321 -838 -713 -32 -117 -32 -365 0 -482
98 -358 380 -625 737 -699 100 -20 288 -21 381 -1 206 44 365 134 511 289 117
124 188 254 235 432 17 63 21 109 21 220 0 147 -15 230 -64 355 -58 150 -200
331 -332 425 -190 134 -412 194 -651 174z"/>
<path d="M8785 4441 c-89 -25 -180 -78 -244 -141 -202 -198 -232 -485 -77
-718 187 -279 553 -335 814 -124 l44 35 -43 43 -42 43 -38 -33 c-54 -46 -139
-85 -211 -98 -208 -36 -425 116 -483 337 -65 250 102 508 359 556 104 19 239
-20 331 -96 l42 -34 42 43 43 44 -53 40 c-148 112 -325 149 -484 103z"/>
<path d="M13595 4440 c-135 -44 -225 -158 -225 -283 0 -84 15 -131 55 -176 50
-55 135 -96 281 -135 72 -19 150 -42 174 -52 124 -47 167 -130 121 -230 -25
-56 -75 -91 -156 -111 -122 -30 -258 5 -381 98 l-62 46 -35 -46 -36 -46 27
-28 c38 -40 131 -93 210 -120 96 -32 291 -31 373 1 124 49 202 157 202 280 1
119 -51 200 -161 256 -45 22 -70 31 -277 92 -109 32 -156 55 -184 90 -69 87
-7 221 121 259 65 19 108 19 183 -1 66 -17 128 -50 181 -96 19 -17 36 -29 37
-27 2 2 18 23 35 45 18 23 32 46 32 52 0 17 -132 101 -195 124 -87 31 -239 35
-320 8z"/>
<path d="M17322 4444 c-249 -67 -427 -296 -426 -549 1 -191 86 -353 247 -465
318 -224 755 -54 853 332 23 88 15 241 -16 323 -86 226 -298 376 -530 374 -41
0 -99 -7 -128 -15z m274 -125 c206 -77 328 -304 280 -520 -40 -181 -182 -320
-358 -351 -250 -44 -498 179 -498 447 0 253 224 469 464 449 32 -3 83 -14 112
-25z"/>
<path d="M19043 4445 c-91 -25 -173 -89 -216 -169 -31 -59 -31 -193 0 -252 43
-81 131 -131 309 -178 247 -64 314 -109 314 -211 0 -213 -330 -261 -560 -81
l-55 43 -37 -47 -37 -47 27 -26 c42 -40 137 -94 211 -119 56 -19 86 -23 191
-22 106 0 134 4 184 24 154 60 235 215 192 364 -34 118 -125 179 -356 241
-226 60 -284 100 -284 197 0 96 90 174 212 185 98 9 193 -26 308 -113 l30 -23
37 49 37 49 -53 40 c-67 50 -122 77 -194 96 -71 19 -191 18 -260 0z"/>
<path d="M10110 3895 l0 -545 60 0 60 0 0 195 0 195 148 0 147 0 134 -191 c73
-105 139 -193 146 -195 7 -3 39 -4 73 -2 l60 3 -139 198 c-83 119 -134 199
-126 202 156 48 250 140 278 274 29 140 -47 293 -180 360 -86 44 -141 51 -408
51 l-253 0 0 -545z m595 390 c38 -19 69 -45 87 -70 53 -75 47 -198 -11 -262
-71 -78 -130 -93 -368 -93 l-183 0 0 231 0 230 208 -3 209 -3 58 -30z"/>
<path d="M11780 3895 l0 -545 395 0 395 0 0 55 0 55 -330 0 -330 0 0 195 0
195 295 0 295 0 0 55 0 55 -295 0 -295 0 0 180 0 180 328 2 327 3 3 58 3 57
-396 0 -395 0 0 -545z"/>
<path d="M14990 3895 l0 -545 60 0 60 0 0 408 c1 322 3 404 13 391 7 -9 97
-177 201 -373 105 -196 192 -356 195 -356 3 0 90 159 194 353 103 194 194 362
202 373 13 17 14 -29 15 -388 l0 -408 60 0 60 0 0 545 0 545 -63 0 -62 0 -200
-375 c-110 -206 -202 -375 -206 -375 -4 0 -96 169 -205 375 l-199 375 -62 0
-63 0 0 -545z"/>
</g>
</svg>
