<svg>
    <defs>
        <svg version="1.1" id="trophy" xmlns="http://www.w3.org/2000/svg" xmlns:xlink="http://www.w3.org/1999/xlink" x="0px" y="0px"
                viewBox="0 0 512 512" style="enable-background:new 0 0 512 512;" xml:space="preserve">
            <g>
                <g>
                    <path d="M351.033,481.99v-90.031H160.968v90.031h-35.012V512h260.089v-30.01H351.033z M311.019,461.983H200.982v-30.01h110.038
                        V461.983z"/>
                </g>
            </g>
            <g>
                <g>
                    <path d="M435.662,45.841c0.919-9.338,1.4-18.688,1.4-28.01c-119.537-23.775-242.586-23.775-362.124,0
                        c0,9.321,0.481,18.671,1.4,28.01H0.613l2.079,16.844c6.273,50.81,22.669,100.19,48.732,146.768
                        c1.886,3.37,3.844,6.76,5.821,10.076c13.383,22.444,38.027,36.385,64.315,36.385h61.448c13.414,11.962,27.794,22.57,42.982,31.515
                        v74.521h60.02v-74.521c15.188-8.945,29.568-19.553,42.982-31.515h61.448c26.287,0,50.931-13.942,64.315-36.383
                        c1.977-3.314,3.935-6.704,5.821-10.076c26.064-46.579,42.46-95.96,48.732-146.769l2.08-16.844
                        C511.387,45.841,435.662,45.841,435.662,45.841z M121.562,225.903c-15.774,0-30.541-8.333-38.54-21.745
                        c-1.836-3.079-3.655-6.227-5.407-9.358c-21.257-37.99-35.568-77.925-42.646-118.948H80.83
                        c10.994,54.834,36.849,107.689,72.914,150.051H121.562z M434.388,194.801c-1.753,3.132-3.57,6.28-5.406,9.357
                        c-7.999,13.413-22.767,21.745-38.54,21.745H358.26c36.065-42.362,61.92-95.218,72.914-150.051h45.86
                        C469.956,116.874,455.646,156.809,434.388,194.801z"/>
                </g>
            </g>
        </svg>
        <svg version="1.1" id="location" xmlns="http://www.w3.org/2000/svg" xmlns:xlink="http://www.w3.org/1999/xlink" x="0px" y="0px"
            viewBox="0 0 512 512" style="enable-background:new 0 0 512 512;" xml:space="preserve">
            <g>
                <g>
                    <path d="M256,0C153.755,0,70.573,83.182,70.573,185.426c0,126.888,165.939,313.167,173.004,321.035
                        c6.636,7.391,18.222,7.378,24.846,0c7.065-7.868,173.004-194.147,173.004-321.035C441.425,83.182,358.244,0,256,0z M256,278.719
                        c-51.442,0-93.292-41.851-93.292-93.293S204.559,92.134,256,92.134s93.291,41.851,93.291,93.293S307.441,278.719,256,278.719z"/>
                </g>
            </g>
        </svg>
        <svg height="512pt" id="date" viewBox="0 0 512 512" width="512pt" xmlns="http://www.w3.org/2000/svg">
            <path d="m448 64h-21.332031v-42.667969c0-11.773437-9.558594-21.332031-21.335938-21.332031h-21.332031c-11.777344 0-21.332031 9.558594-21.332031 21.332031v42.667969h-213.335938v-42.667969c0-11.773437-9.554687-21.332031-21.332031-21.332031h-21.332031c-11.777344 0-21.335938 9.558594-21.335938 21.332031v42.667969h-21.332031c-35.285156 0-64 28.714844-64 64v320c0 35.285156 28.714844 64 64 64h384c35.285156 0 64-28.714844 64-64v-320c0-35.285156-28.714844-64-64-64zm21.332031 384c0 11.753906-9.578125 21.332031-21.332031 21.332031h-384c-11.753906 0-21.332031-9.578125-21.332031-21.332031v-233.8125h426.664062zm0 0"/>
        </svg>
        <svg id="time" enable-background="new 0 0 443.294 443.294" height="512" viewBox="0 0 443.294 443.294" width="512" xmlns="http://www.w3.org/2000/svg">
            <path d="m221.647 0c-122.214 0-221.647 99.433-221.647 221.647s99.433 221.647 221.647 221.647 221.647-99.433 221.647-221.647-99.433-221.647-221.647-221.647zm0 415.588c-106.941 0-193.941-87-193.941-193.941s87-193.941 193.941-193.941 193.941 87 193.941 193.941-87 193.941-193.941 193.941z"/>
            <path d="m235.5 83.118h-27.706v144.265l87.176 87.176 19.589-19.589-79.059-79.059z"/>
        </svg>
        <svg id="briefcase" viewBox="0 -31 512 512" xmlns="http://www.w3.org/2000/svg">
            <path d="m211 240h90v30h-90zm0 0"/>
            <path d="m415.378906 270h-84.378906v15c0 8.289062-6.710938 15-15 15h-120c-8.289062 0-15-6.710938-15-15v-15h-84.378906c-19.394532 0-36.546875-12.363281-42.6875-30.761719l-53.933594-161.828125v327.589844c0 24.8125 20.1875 45 45 45h422c24.8125 0 45-20.1875 45-45v-327.578125l-53.9375 161.816406c-6.136719 18.398438-23.289062 30.761719-42.683594 30.761719zm0 0"/>
            <path d="m316 0h-120c-24.8125 0-45 20.1875-45 45v15h-125.191406l56.574218 169.746094c2.050782 6.136718 7.777344 10.253906 14.238282 10.253906h84.378906v-15c0-8.289062 6.710938-15 15-15h120c8.289062 0 15 6.710938 15 15v15h84.378906c6.460938 0 12.1875-4.117188 14.238282-10.253906l56.578124-169.746094h-125.195312v-15c0-24.8125-20.1875-45-45-45zm-135 60v-15c0-8.277344 6.722656-15 15-15h120c8.277344 0 15 6.722656 15 15v15zm0 0"/>
        </svg>
        <svg version="1.1" id="menu" xmlns="http://www.w3.org/2000/svg" xmlns:xlink="http://www.w3.org/1999/xlink" x="0px" y="0px"
            viewBox="0 0 469.333 469.333" style="enable-background:new 0 0 469.333 469.333;" xml:space="preserve">
            <g>
                <g>
                    <g>
                        <path d="M53.333,106.667H416c29.417,0,53.333-23.927,53.333-53.333S445.417,0,416,0H53.333C23.917,0,0,23.927,0,53.333
                            S23.917,106.667,53.333,106.667z"/>
                        <path d="M416,181.333H53.333C23.917,181.333,0,205.26,0,234.667S23.917,288,53.333,288H416c29.417,0,53.333-23.927,53.333-53.333
                            S445.417,181.333,416,181.333z"/>
                        <path d="M416,362.667H53.333C23.917,362.667,0,386.594,0,416s23.917,53.333,53.333,53.333H416
                            c29.417,0,53.333-23.927,53.333-53.333S445.417,362.667,416,362.667z"/>
                    </g>
                </g>
            </g>
        </svg>
        <svg id="settings" enable-background="new 0 0 512 512" height="512" viewBox="0 0 512 512" width="512" xmlns="http://www.w3.org/2000/svg">
            <path d="m272.066 512h-32.133c-25.989 0-47.134-21.144-47.134-47.133v-10.871c-11.049-3.53-21.784-7.986-32.097-13.323l-7.704 7.704c-18.659 18.682-48.548 18.134-66.665-.007l-22.711-22.71c-18.149-18.129-18.671-48.008.006-66.665l7.698-7.698c-5.337-10.313-9.792-21.046-13.323-32.097h-10.87c-25.988 0-47.133-21.144-47.133-47.133v-32.134c0-25.989 21.145-47.133 47.134-47.133h10.87c3.531-11.05 7.986-21.784 13.323-32.097l-7.704-7.703c-18.666-18.646-18.151-48.528.006-66.665l22.713-22.712c18.159-18.184 48.041-18.638 66.664.006l7.697 7.697c10.313-5.336 21.048-9.792 32.097-13.323v-10.87c0-25.989 21.144-47.133 47.134-47.133h32.133c25.989 0 47.133 21.144 47.133 47.133v10.871c11.049 3.53 21.784 7.986 32.097 13.323l7.704-7.704c18.659-18.682 48.548-18.134 66.665.007l22.711 22.71c18.149 18.129 18.671 48.008-.006 66.665l-7.698 7.698c5.337 10.313 9.792 21.046 13.323 32.097h10.87c25.989 0 47.134 21.144 47.134 47.133v32.134c0 25.989-21.145 47.133-47.134 47.133h-10.87c-3.531 11.05-7.986 21.784-13.323 32.097l7.704 7.704c18.666 18.646 18.151 48.528-.006 66.665l-22.713 22.712c-18.159 18.184-48.041 18.638-66.664-.006l-7.697-7.697c-10.313 5.336-21.048 9.792-32.097 13.323v10.871c0 25.987-21.144 47.131-47.134 47.131zm-106.349-102.83c14.327 8.473 29.747 14.874 45.831 19.025 6.624 1.709 11.252 7.683 11.252 14.524v22.148c0 9.447 7.687 17.133 17.134 17.133h32.133c9.447 0 17.134-7.686 17.134-17.133v-22.148c0-6.841 4.628-12.815 11.252-14.524 16.084-4.151 31.504-10.552 45.831-19.025 5.895-3.486 13.4-2.538 18.243 2.305l15.688 15.689c6.764 6.772 17.626 6.615 24.224.007l22.727-22.726c6.582-6.574 6.802-17.438.006-24.225l-15.695-15.695c-4.842-4.842-5.79-12.348-2.305-18.242 8.473-14.326 14.873-29.746 19.024-45.831 1.71-6.624 7.684-11.251 14.524-11.251h22.147c9.447 0 17.134-7.686 17.134-17.133v-32.134c0-9.447-7.687-17.133-17.134-17.133h-22.147c-6.841 0-12.814-4.628-14.524-11.251-4.151-16.085-10.552-31.505-19.024-45.831-3.485-5.894-2.537-13.4 2.305-18.242l15.689-15.689c6.782-6.774 6.605-17.634.006-24.225l-22.725-22.725c-6.587-6.596-17.451-6.789-24.225-.006l-15.694 15.695c-4.842 4.843-12.35 5.791-18.243 2.305-14.327-8.473-29.747-14.874-45.831-19.025-6.624-1.709-11.252-7.683-11.252-14.524v-22.15c0-9.447-7.687-17.133-17.134-17.133h-32.133c-9.447 0-17.134 7.686-17.134 17.133v22.148c0 6.841-4.628 12.815-11.252 14.524-16.084 4.151-31.504 10.552-45.831 19.025-5.896 3.485-13.401 2.537-18.243-2.305l-15.688-15.689c-6.764-6.772-17.627-6.615-24.224-.007l-22.727 22.726c-6.582 6.574-6.802 17.437-.006 24.225l15.695 15.695c4.842 4.842 5.79 12.348 2.305 18.242-8.473 14.326-14.873 29.746-19.024 45.831-1.71 6.624-7.684 11.251-14.524 11.251h-22.148c-9.447.001-17.134 7.687-17.134 17.134v32.134c0 9.447 7.687 17.133 17.134 17.133h22.147c6.841 0 12.814 4.628 14.524 11.251 4.151 16.085 10.552 31.505 19.024 45.831 3.485 5.894 2.537 13.4-2.305 18.242l-15.689 15.689c-6.782 6.774-6.605 17.634-.006 24.225l22.725 22.725c6.587 6.596 17.451 6.789 24.225.006l15.694-15.695c3.568-3.567 10.991-6.594 18.244-2.304z"/><path d="m256 367.4c-61.427 0-111.4-49.974-111.4-111.4s49.973-111.4 111.4-111.4 111.4 49.974 111.4 111.4-49.973 111.4-111.4 111.4zm0-192.8c-44.885 0-81.4 36.516-81.4 81.4s36.516 81.4 81.4 81.4 81.4-36.516 81.4-81.4-36.515-81.4-81.4-81.4z"/>
        </svg>
        <svg id="user" viewBox="-42 0 512 512.002" xmlns="http://www.w3.org/2000/svg">
            <path d="m210.351562 246.632812c33.882813 0 63.222657-12.152343 87.195313-36.128906 23.972656-23.972656 36.125-53.304687 36.125-87.191406 0-33.875-12.152344-63.210938-36.128906-87.191406-23.976563-23.96875-53.3125-36.121094-87.191407-36.121094-33.886718 0-63.21875 12.152344-87.191406 36.125s-36.128906 53.308594-36.128906 87.1875c0 33.886719 12.15625 63.222656 36.132812 87.195312 23.976563 23.96875 53.3125 36.125 87.1875 36.125zm0 0"/><path d="m426.128906 393.703125c-.691406-9.976563-2.089844-20.859375-4.148437-32.351563-2.078125-11.578124-4.753907-22.523437-7.957031-32.527343-3.308594-10.339844-7.808594-20.550781-13.371094-30.335938-5.773438-10.15625-12.554688-19-20.164063-26.277343-7.957031-7.613282-17.699219-13.734376-28.964843-18.199219-11.226563-4.441407-23.667969-6.691407-36.976563-6.691407-5.226563 0-10.28125 2.144532-20.042969 8.5-6.007812 3.917969-13.035156 8.449219-20.878906 13.460938-6.707031 4.273438-15.792969 8.277344-27.015625 11.902344-10.949219 3.542968-22.066406 5.339844-33.039063 5.339844-10.972656 0-22.085937-1.796876-33.046874-5.339844-11.210938-3.621094-20.296876-7.625-26.996094-11.898438-7.769532-4.964844-14.800782-9.496094-20.898438-13.46875-9.75-6.355468-14.808594-8.5-20.035156-8.5-13.3125 0-25.75 2.253906-36.972656 6.699219-11.257813 4.457031-21.003906 10.578125-28.96875 18.199219-7.605469 7.28125-14.390625 16.121094-20.15625 26.273437-5.558594 9.785157-10.058594 19.992188-13.371094 30.339844-3.199219 10.003906-5.875 20.945313-7.953125 32.523437-2.058594 11.476563-3.457031 22.363282-4.148437 32.363282-.679688 9.796875-1.023438 19.964844-1.023438 30.234375 0 26.726562 8.496094 48.363281 25.25 64.320312 16.546875 15.746094 38.441406 23.734375 65.066406 23.734375h246.53125c26.625 0 48.511719-7.984375 65.0625-23.734375 16.757813-15.945312 25.253906-37.585937 25.253906-64.324219-.003906-10.316406-.351562-20.492187-1.035156-30.242187zm0 0"/>
        </svg>
        <svg version="1.1" id="logout" xmlns="http://www.w3.org/2000/svg" xmlns:xlink="http://www.w3.org/1999/xlink" x="0px" y="0px"
            viewBox="0 0 512 512" style="enable-background:new 0 0 512 512;" xml:space="preserve">
            <g>
                <g>
                    <path d="M505.664,243.739l-54.783-38.622c-9.926-6.997-23.645,0.128-23.645,12.26v23.622H164.196
                        c-8.284,0-15.001,6.716-15.001,15.001S155.912,271,164.196,271h263.038v23.621c0,12.212,13.792,19.204,23.644,12.26l54.783-38.622
                        C514.027,262.365,514.196,249.767,505.664,243.739z"/>
                </g>
            </g>
            <g>
                <g>
                    <path d="M430.471,352.317c-7.169-4.146-16.347-1.698-20.496,5.474c-35.236,60.916-101.103,101.811-176.372,101.811
                        c-112.266,0-203.602-91.336-203.602-203.602S121.337,52.398,233.603,52.398c75.319,0,141.156,40.933,176.371,101.809
                        c4.148,7.172,13.328,9.619,20.496,5.474c7.171-4.148,9.621-13.325,5.474-20.496C395.418,69.127,319.729,22.397,233.603,22.397
                        C104.49,22.397,0,126.876,0,256c0,129.113,104.479,233.603,233.603,233.603c86.163,0,161.833-46.763,202.342-116.79
                        C440.092,365.642,437.642,356.466,430.471,352.317z"/>
                </g>
            </g>
        </svg>
        <svg version="1.1" id="close" xmlns="http://www.w3.org/2000/svg" xmlns:xlink="http://www.w3.org/1999/xlink" x="0px" y="0px"
            viewBox="0 0 492 492" style="enable-background:new 0 0 492 492;" xml:space="preserve">
            <g>
                <g>
                    <path d="M300.188,246L484.14,62.04c5.06-5.064,7.852-11.82,7.86-19.024c0-7.208-2.792-13.972-7.86-19.028L468.02,7.872
                        c-5.068-5.076-11.824-7.856-19.036-7.856c-7.2,0-13.956,2.78-19.024,7.856L246.008,191.82L62.048,7.872
                        c-5.06-5.076-11.82-7.856-19.028-7.856c-7.2,0-13.96,2.78-19.02,7.856L7.872,23.988c-10.496,10.496-10.496,27.568,0,38.052
                        L191.828,246L7.872,429.952c-5.064,5.072-7.852,11.828-7.852,19.032c0,7.204,2.788,13.96,7.852,19.028l16.124,16.116
                        c5.06,5.072,11.824,7.856,19.02,7.856c7.208,0,13.968-2.784,19.028-7.856l183.96-183.952l183.952,183.952
                        c5.068,5.072,11.824,7.856,19.024,7.856h0.008c7.204,0,13.96-2.784,19.028-7.856l16.12-16.116
                        c5.06-5.064,7.852-11.824,7.852-19.028c0-7.204-2.792-13.96-7.852-19.028L300.188,246z"/>
                </g>
            </g>
        </svg>
        <svg version="1.1" id="profile" xmlns="http://www.w3.org/2000/svg" xmlns:xlink="http://www.w3.org/1999/xlink" x="0px" y="0px"
            viewBox="0 0 512 512" style="enable-background:new 0 0 512 512;" xml:space="preserve">
            <g>
                <g>
                    <path d="M256,0C114.844,0,0,114.844,0,256s114.844,256,256,256s256-114.844,256-256S397.156,0,256,0z M256,74.667
                        c67.635,0,122.667,55.031,122.667,122.667S323.635,320,256,320s-122.667-55.031-122.667-122.667S188.365,74.667,256,74.667z
                        M256,469.333c-69.707,0-131.52-33.755-170.473-85.615c42.676-20.534,103.621-42.385,170.473-42.385
                        c66.857,0,127.807,21.854,170.474,42.383C387.521,435.577,325.708,469.333,256,469.333z"/>
                </g>
            </g>
        </svg>
        <svg version="1.1" id="border" xmlns="http://www.w3.org/2000/svg" xmlns:xlink="http://www.w3.org/1999/xlink" x="0px" y="0px"
            width="31.844px" height="31.844px" viewBox="0 0 31.844 31.844" style="enable-background:new 0 0 31.844 31.844;"
            xml:space="preserve">
            <g>
                <path d="M30.578,17.446c0.539-0.289,1.215-1.538,1.215-1.538s-1.414-0.125-1.953,0.165c-0.053,0.029-0.096,0.072-0.146,0.106
                    c0.073-0.503,0.122-1.014,0.142-1.533c0.338,0.091,0.825-0.062,1.178-0.375c0.459-0.406,0.83-1.776,0.83-1.776
                    s-1.404,0.204-1.863,0.61c-0.057,0.05-0.096,0.113-0.146,0.17c-0.032-0.538-0.1-1.066-0.19-1.586
                    c0.346,0.002,0.776-0.259,1.047-0.638c0.354-0.499,0.404-1.917,0.404-1.917s-1.322,0.516-1.676,1.015
                    c-0.037,0.052-0.057,0.112-0.088,0.168c-0.115-0.409-0.252-0.809-0.404-1.202c0.346-0.057,0.727-0.396,0.918-0.827
                    c0.252-0.558,0.028-1.959,0.028-1.959s-1.198,0.762-1.448,1.32c-0.029,0.063-0.039,0.131-0.059,0.197
                    c-0.213-0.421-0.448-0.83-0.701-1.225c0.314-0.131,0.613-0.513,0.73-0.946c0.162-0.591-0.277-1.939-0.277-1.939
                    s-1.064,0.939-1.225,1.53c-0.021,0.075-0.021,0.153-0.03,0.23c-0.329-0.417-0.679-0.816-1.052-1.193
                    c0.285-0.193,0.498-0.645,0.515-1.103c0.022-0.611-0.712-1.825-0.712-1.825s-0.822,1.158-0.846,1.769
                    c-0.002,0.07,0,0.141,0.008,0.21c-0.307-0.254-0.623-0.497-0.951-0.725c-0.089-0.302-0.331-0.623-0.664-0.824
                    c-0.523-0.315-1.941-0.261-1.941-0.261s0.612,1.279,1.137,1.595c0.232,0.14,0.496,0.21,0.742,0.226
                    c0.25,0.17,0.498,0.346,0.735,0.533c-0.638,0.068-1.687,0.7-1.687,0.7s1.156,0.821,1.768,0.844
                    c0.469,0.017,0.943-0.171,1.148-0.452c0.252,0.253,0.49,0.52,0.722,0.793c-0.644-0.064-1.776,0.302-1.776,0.302
                    s0.938,1.063,1.53,1.224c0.461,0.125,0.97,0.042,1.229-0.197c0.188,0.289,0.361,0.585,0.524,0.889
                    c-0.61-0.186-1.846,0.008-1.846,0.008s0.761,1.197,1.319,1.447c0.416,0.187,0.91,0.196,1.209,0.029
                    c0.101,0.261,0.192,0.527,0.276,0.796c-0.557-0.307-1.825-0.356-1.825-0.356s0.518,1.321,1.017,1.675
                    c0.376,0.267,0.866,0.373,1.194,0.26c0.062,0.355,0.11,0.715,0.145,1.08c-0.496-0.411-1.665-0.73-1.665-0.73
                    s0.205,1.404,0.612,1.861c0.301,0.34,0.746,0.551,1.089,0.522c-0.013,0.364-0.036,0.726-0.078,1.083
                    c-0.36-0.523-1.479-1.134-1.479-1.134s-0.125,1.414,0.166,1.952c0.233,0.434,0.662,0.746,1.021,0.752
                    c-0.079,0.316-0.163,0.632-0.265,0.939c-0.256-0.568-1.365-1.353-1.365-1.353s-0.289,1.39-0.062,1.958
                    c0.164,0.419,0.508,0.768,0.836,0.859c-0.134,0.283-0.271,0.562-0.424,0.832c-0.145-0.604-1.09-1.582-1.09-1.582
                    s-0.543,1.311-0.428,1.912c0.082,0.438,0.349,0.84,0.65,0.998c-0.195,0.264-0.396,0.523-0.611,0.772
                    c-0.01-0.617-0.768-1.786-0.768-1.786s-0.785,1.182-0.789,1.792c-0.002,0.454,0.186,0.908,0.459,1.116
                    c-0.236,0.215-0.479,0.425-0.729,0.623c0.001-0.012,0.005-0.021,0.006-0.033c0.073-0.607-0.556-1.88-0.556-1.88
                    s-0.916,1.082-0.99,1.688c-0.053,0.418,0.066,0.844,0.281,1.094c-0.31,0.189-0.625,0.367-0.951,0.529
                    c0.033-0.088,0.062-0.178,0.08-0.271c0.117-0.601-0.42-1.914-0.42-1.914s-0.992,1.015-1.108,1.616
                    c-0.081,0.412,0.008,0.846,0.204,1.111c-0.571,0.215-1.164,0.381-1.768,0.518c-0.355-1.17-1.431-2.028-2.716-2.028
                    c-1.286,0-2.361,0.856-2.716,2.028c-0.604-0.135-1.197-0.303-1.768-0.518c0.196-0.266,0.285-0.699,0.204-1.111
                    c-0.116-0.602-1.108-1.616-1.108-1.616s-0.538,1.313-0.42,1.914c0.018,0.093,0.047,0.183,0.08,0.271
                    c-0.326-0.162-0.642-0.34-0.951-0.529c0.213-0.25,0.333-0.676,0.281-1.094c-0.074-0.606-0.991-1.688-0.991-1.688
                    s-0.628,1.271-0.555,1.88c0.001,0.012,0.005,0.021,0.006,0.033c-0.251-0.198-0.493-0.407-0.729-0.623
                    c0.272-0.208,0.461-0.663,0.458-1.116c-0.003-0.612-0.789-1.792-0.789-1.792s-0.757,1.169-0.767,1.786
                    c-0.214-0.249-0.416-0.509-0.611-0.772c0.301-0.158,0.567-0.56,0.65-0.998c0.116-0.603-0.428-1.912-0.428-1.912
                    s-0.945,0.979-1.09,1.582c-0.152-0.271-0.29-0.549-0.423-0.832c0.329-0.092,0.671-0.44,0.836-0.859
                    c0.226-0.57-0.063-1.958-0.063-1.958s-1.11,0.784-1.366,1.353c-0.102-0.309-0.186-0.623-0.264-0.939
                    c0.358-0.006,0.787-0.318,1.02-0.752c0.291-0.539,0.167-1.952,0.167-1.952s-1.121,0.611-1.48,1.134
                    c-0.042-0.356-0.065-0.718-0.078-1.083c0.342,0.029,0.788-0.183,1.089-0.522C4.525,13.614,4.73,12.21,4.73,12.21
                    s-1.168,0.319-1.665,0.73c0.033-0.364,0.082-0.725,0.145-1.08c0.327,0.113,0.818,0.007,1.194-0.26
                    C4.903,11.247,5.42,9.925,5.42,9.925s-1.268,0.049-1.825,0.356c0.084-0.27,0.176-0.535,0.277-0.796
                    c0.3,0.167,0.794,0.157,1.208-0.029C5.639,9.207,6.4,8.009,6.4,8.009S5.16,7.818,4.549,8.004C4.713,7.7,4.887,7.403,5.074,7.115
                    c0.26,0.238,0.769,0.322,1.23,0.197c0.591-0.161,1.53-1.224,1.53-1.224S6.7,5.723,6.057,5.787c0.231-0.273,0.469-0.54,0.721-0.793
                    c0.206,0.281,0.681,0.468,1.149,0.452c0.611-0.022,1.768-0.844,1.768-0.844s-1.049-0.632-1.687-0.7
                    C8.246,3.715,8.493,3.54,8.744,3.37c0.245-0.016,0.51-0.086,0.742-0.226c0.524-0.316,1.136-1.595,1.136-1.595
                    s-1.417-0.055-1.941,0.26C8.348,2.009,8.106,2.331,8.016,2.632C7.688,2.86,7.372,3.104,7.066,3.357
                    c0.006-0.07,0.009-0.14,0.007-0.21C7.05,2.535,6.228,1.378,6.228,1.378S5.492,2.591,5.515,3.203
                    c0.017,0.458,0.229,0.91,0.514,1.102C5.657,4.683,5.307,5.082,4.978,5.499c-0.01-0.077-0.01-0.155-0.03-0.23
                    c-0.161-0.591-1.225-1.53-1.225-1.53s-0.44,1.349-0.278,1.939c0.118,0.434,0.417,0.816,0.732,0.947
                    C3.924,7.02,3.689,7.427,3.476,7.85c-0.02-0.066-0.03-0.134-0.058-0.197c-0.251-0.558-1.449-1.32-1.449-1.32
                    s-0.224,1.4,0.028,1.958c0.193,0.43,0.574,0.77,0.918,0.827C2.764,9.51,2.627,9.91,2.511,10.319
                    c-0.031-0.056-0.051-0.116-0.088-0.168c-0.354-0.5-1.676-1.016-1.676-1.016s0.05,1.418,0.405,1.917
                    c0.27,0.378,0.701,0.64,1.047,0.638c-0.092,0.52-0.159,1.048-0.191,1.586c-0.049-0.057-0.09-0.12-0.146-0.17
                    C1.404,12.699,0,12.497,0,12.497s0.37,1.37,0.829,1.776c0.353,0.313,0.84,0.466,1.178,0.375c0.02,0.519,0.067,1.029,0.142,1.533
                    c-0.05-0.034-0.092-0.077-0.146-0.106c-0.539-0.291-1.953-0.165-1.953-0.165s0.676,1.248,1.215,1.539
                    c0.386,0.207,0.851,0.25,1.162,0.125c0.1,0.394,0.214,0.779,0.347,1.16c-0.045-0.023-0.083-0.056-0.13-0.074
                    c-0.569-0.225-1.958,0.066-1.958,0.066s0.817,1.159,1.387,1.383c0.442,0.176,0.956,0.149,1.241-0.056
                    c0.181,0.384,0.376,0.759,0.589,1.124c-0.045-0.013-0.091-0.027-0.137-0.035c-0.601-0.115-1.912,0.428-1.912,0.428
                    s1.019,0.988,1.621,1.103c0.473,0.09,0.977-0.036,1.215-0.297c0.257,0.351,0.528,0.688,0.816,1.015
                    c-0.039-0.002-0.077-0.008-0.116-0.007c-0.612,0.004-1.793,0.791-1.793,0.791s1.19,0.771,1.802,0.769
                    c0.472-0.004,0.941-0.215,1.132-0.508c0.276,0.254,0.559,0.498,0.854,0.729c-0.026,0.002-0.052-0.004-0.078-0.001
                    c-0.608,0.075-1.689,0.993-1.689,0.993s1.271,0.629,1.878,0.554c0.503-0.062,0.973-0.36,1.094-0.704
                    c0.236,0.146,0.468,0.301,0.713,0.434c-0.601,0.25-1.413,1.043-1.413,1.043s1.312,0.533,1.912,0.414
                    c0.485-0.094,0.922-0.412,1.033-0.752c0.724,0.287,1.479,0.512,2.255,0.676c0.105,1.479,1.326,2.649,2.831,2.649
                    s2.726-1.17,2.831-2.649c0.776-0.164,1.531-0.389,2.256-0.676c0.109,0.34,0.547,0.658,1.032,0.752
                    c0.601,0.119,1.914-0.418,1.914-0.418s-0.812-0.793-1.413-1.043c0.245-0.134,0.477-0.285,0.713-0.434
                    c0.121,0.343,0.592,0.643,1.094,0.704c0.607,0.075,1.879-0.554,1.879-0.554s-1.082-0.918-1.689-0.994
                    c-0.025-0.002-0.052,0.004-0.078,0.002c0.295-0.231,0.578-0.475,0.854-0.729c0.191,0.293,0.66,0.504,1.133,0.508
                    c0.611,0.004,1.802-0.769,1.802-0.769s-1.181-0.787-1.793-0.791c-0.039,0-0.077,0.005-0.116,0.007
                    c0.288-0.324,0.559-0.664,0.816-1.015c0.238,0.261,0.742,0.388,1.215,0.297c0.602-0.114,1.621-1.103,1.621-1.103
                    s-1.311-0.543-1.912-0.429c-0.046,0.009-0.092,0.022-0.137,0.036c0.213-0.363,0.408-0.738,0.589-1.124
                    c0.284,0.205,0.798,0.231,1.241,0.056c0.57-0.224,1.387-1.384,1.387-1.384s-1.389-0.29-1.958-0.065
                    c-0.047,0.02-0.085,0.051-0.13,0.074c0.133-0.379,0.246-0.767,0.347-1.16C29.727,17.696,30.191,17.653,30.578,17.446z"/>
            </g>
        </svg>
        <svg version="1.1" id="warning" xmlns="http://www.w3.org/2000/svg" xmlns:xlink="http://www.w3.org/1999/xlink" x="0px" y="0px"
            viewBox="0 0 512 512" style="enable-background:new 0 0 512 512;" xml:space="preserve">
            <g>
                <g>
                    <path d="M256,0C114.497,0,0,114.507,0,256c0,141.503,114.507,256,256,256c141.503,0,256-114.507,256-256
                        C512,114.497,397.493,0,256,0z M256,472c-119.393,0-216-96.615-216-216c0-119.393,96.615-216,216-216
                        c119.393,0,216,96.615,216,216C472,375.393,375.385,472,256,472z"/>
                </g>
            </g>
            <g>
                <g>
                    <path d="M256,128.877c-11.046,0-20,8.954-20,20V277.67c0,11.046,8.954,20,20,20s20-8.954,20-20V148.877
                        C276,137.831,267.046,128.877,256,128.877z"/>
                </g>
            </g>
            <g>
                <g>
                    <circle cx="256" cy="349.16" r="27"/>
                </g>
            </g>
        </svg>
        <svg id="spinner" width="42px" height="41px" viewBox="0 0 42 41" version="1.1" xmlns="http://www.w3.org/2000/svg" xmlns:xlink="http://www.w3.org/1999/xlink">
            <g id="Reports" stroke="none" stroke-width="1" fill="none" fill-rule="evenodd">
                <g id="Pages/delayed-preview-loading" transform="translate(-629.000000, -434.000000)" fill="#03B6C0">
                <g id="Group-9" transform="translate(628.000000, 434.000000)">
                    <g id="spinner" transform="translate(0.506024, 0.000000)">
                    <path d="M36.4939759,7 C33.1854045,7 30.4939759,9.69142857 30.4939759,13 C30.4939759,16.3085714 33.1854045,19 36.4939759,19 C39.8025473,19 42.4939759,16.3085714 42.4939759,13 C42.4939759,9.69142857 39.8025473,7 36.4939759,7" id="Fill-1194"></path>
                    <path d="M23.9939759,0 C20.9616426,0 18.4939759,2.46766667 18.4939759,5.5 C18.4939759,8.53233333 20.9616426,11 23.9939759,11 C27.0263092,11 29.4939759,8.53233333 29.4939759,5.5 C29.4939759,2.46766667 27.0263092,0 23.9939759,0" id="Fill-1195" opacity="0.8"></path>
                    <path d="M11.9939759,14 C15.0263092,14 17.4939759,11.5323333 17.4939759,8.5 C17.4939759,5.46766667 15.0263092,3 11.9939759,3 C8.96164257,3 6.4939759,5.46766667 6.4939759,8.5 C6.4939759,11.5323333 8.96164257,14 11.9939759,14" id="Fill-1196" opacity="0.7"></path>
                    <path d="M9.4939759,19.5 C9.4939759,17.0196 7.4761759,15 4.9939759,15 C2.5117759,15 0.493975904,17.0196 0.493975904,19.5 C0.493975904,21.9804 2.5117759,24 4.9939759,24 C7.4761759,24 9.4939759,21.9804 9.4939759,19.5" id="Fill-1197" opacity="0.6"></path>
                    <path d="M7.9939759,26 C5.5117759,26 3.4939759,28.0196 3.4939759,30.5 C3.4939759,32.9804 5.5117759,35 7.9939759,35 C10.4761759,35 12.4939759,32.9804 12.4939759,30.5 C12.4939759,28.0196 10.4761759,26 7.9939759,26" id="Fill-1198" opacity="0.5"></path>
                    <path d="M16.9939759,34 C15.0654759,34 13.4939759,35.568 13.4939759,37.5 C13.4939759,39.43025 15.0654759,41 16.9939759,41 C18.9224759,41 20.4939759,39.43025 20.4939759,37.5 C20.4939759,35.568 18.9224759,34 16.9939759,34" id="Fill-1199" opacity="0.4"></path>
                    <path d="M25.9939759,35 C24.6156426,35 23.4939759,36.1216667 23.4939759,37.5 C23.4939759,38.8783333 24.6156426,40 25.9939759,40 C27.3723092,40 28.4939759,38.8783333 28.4939759,37.5 C28.4939759,36.1216667 27.3723092,35 25.9939759,35" id="Fill-1200" opacity="0.3"></path>
                    <path d="M33.4939759,33 C32.3899759,33 31.4939759,33.898 31.4939759,35 C31.4939759,36.104 32.3899759,37 33.4939759,37 C34.5979759,37 35.4939759,36.104 35.4939759,35 C35.4939759,33.898 34.5979759,33 33.4939759,33" id="Fill-1201" opacity="0.2"></path>
                    <path d="M37.4939759,29 C36.3899759,29 35.4939759,29.898 35.4939759,31 C35.4939759,32.102 36.3899759,33 37.4939759,33 C38.5979759,33 39.4939759,32.102 39.4939759,31 C39.4939759,29.898 38.5979759,29 37.4939759,29" id="Fill-1202" opacity="0.2"></path>
                    <path d="M39.4939759,25.5 C39.4939759,25.776 39.2689759,26 38.9939759,26 C38.7179759,26 38.4939759,25.776 38.4939759,25.5 C38.4939759,25.224 38.7179759,25 38.9939759,25 C39.2689759,25 39.4939759,25.224 39.4939759,25.5" id="Fill-1203" opacity="0.1"></path>
                    </g>
                </g>
                </g>
            </g>
        </svg>
        <svg version="1.1" id="category" xmlns="http://www.w3.org/2000/svg" xmlns:xlink="http://www.w3.org/1999/xlink" x="0px" y="0px"
            viewBox="0 0 512 512" style="enable-background:new 0 0 512 512;" xml:space="preserve">
            <g>
                <g>
                    <path d="M176.792,0H59.208C26.561,0,0,26.561,0,59.208v117.584C0,209.439,26.561,236,59.208,236h117.584
                        C209.439,236,236,209.439,236,176.792V59.208C236,26.561,209.439,0,176.792,0z M196,176.792c0,10.591-8.617,19.208-19.208,19.208
                        H59.208C48.617,196,40,187.383,40,176.792V59.208C40,48.617,48.617,40,59.208,40h117.584C187.383,40,196,48.617,196,59.208
                        V176.792z"/>
                </g>
            </g>
            <g>
                <g>
                    <path d="M452,0H336c-33.084,0-60,26.916-60,60v116c0,33.084,26.916,60,60,60h116c33.084,0,60-26.916,60-60V60
                        C512,26.916,485.084,0,452,0z M472,176c0,11.028-8.972,20-20,20H336c-11.028,0-20-8.972-20-20V60c0-11.028,8.972-20,20-20h116
                        c11.028,0,20,8.972,20,20V176z"/>
                </g>
            </g>
            <g>
                <g>
                    <path d="M176.792,276H59.208C26.561,276,0,302.561,0,335.208v117.584C0,485.439,26.561,512,59.208,512h117.584
                        C209.439,512,236,485.439,236,452.792V335.208C236,302.561,209.439,276,176.792,276z M196,452.792
                        c0,10.591-8.617,19.208-19.208,19.208H59.208C48.617,472,40,463.383,40,452.792V335.208C40,324.617,48.617,316,59.208,316h117.584
                        c10.591,0,19.208,8.617,19.208,19.208V452.792z"/>
                </g>
            </g>
            <g>
                <g>
                    <path d="M452,276H336c-33.084,0-60,26.916-60,60v116c0,33.084,26.916,60,60,60h116c33.084,0,60-26.916,60-60V336
                        C512,302.916,485.084,276,452,276z M472,452c0,11.028-8.972,20-20,20H336c-11.028,0-20-8.972-20-20V336c0-11.028,8.972-20,20-20
                        h116c11.028,0,20,8.972,20,20V452z"/>
                </g>
            </g>
        </svg>
        <svg id="home" height="512pt" viewBox="0 0 512 512" width="512pt" xmlns="http://www.w3.org/2000/svg">
            <path d="m498.195312 222.695312c-.011718-.011718-.023437-.023437-.035156-.035156l-208.855468-208.847656c-8.902344-8.90625-20.738282-13.8125-33.328126-13.8125-12.589843 0-24.425781 4.902344-33.332031 13.808594l-208.746093 208.742187c-.070313.070313-.140626.144531-.210938.214844-18.28125 18.386719-18.25 48.21875.089844 66.558594 8.378906 8.382812 19.445312 13.238281 31.277344 13.746093.480468.046876.964843.070313 1.453124.070313h8.324219v153.699219c0 30.414062 24.746094 55.160156 55.167969 55.160156h81.710938c8.28125 0 15-6.714844 15-15v-120.5c0-13.878906 11.289062-25.167969 25.167968-25.167969h48.195313c13.878906 0 25.167969 11.289063 25.167969 25.167969v120.5c0 8.285156 6.714843 15 15 15h81.710937c30.421875 0 55.167969-24.746094 55.167969-55.160156v-153.699219h7.71875c12.585937 0 24.421875-4.902344 33.332031-13.808594 18.359375-18.371093 18.367187-48.253906.023437-66.636719zm0 0"/>
        </svg>
        <svg id="register" enable-background="new 0 0 24 24" height="512" viewBox="0 0 24 24" width="512" xmlns="http://www.w3.org/2000/svg">
            <path d="m19.5 20.5h-3c-.414 0-.75-.336-.75-.75v-1.456c0-.407-.242-.742-.445-.951-.848-.875-1.21-2.069-.993-3.278.27-1.503 1.508-2.738 3.01-3.004 1.108-.2 2.235.101 3.087.816.853.715 1.341 1.762 1.341 2.874 0 1.002-.395 1.943-1.112 2.65-.177.175-.388.457-.388.808v1.542c0 .413-.336.749-.75.749z"/>
            <path d="m23.25 24h-10.5c-.414 0-.75-.336-.75-.75v-1.867c0-.881.659-1.627 1.533-1.736l3.124-.391 2.593-.006 3.217.396c.874.109 1.533.856 1.533 1.737v1.867c0 .414-.336.75-.75.75z"/>
            <path d="m12.25 2h-1.1c-.33-1.15-1.39-2-2.65-2s-2.32.85-2.65 2h-1.1c-.41 0-.75.34-.75.75v1.5c0 .96.79 1.75 1.75 1.75h5.5c.96 0 1.75-.79 1.75-1.75v-1.5c0-.41-.34-.75-.75-.75z"/>
            <path d="m14.25 3h-.25v1.25c0 1.52-1.23 2.75-2.75 2.75h-5.5c-1.52 0-2.75-1.23-2.75-2.75v-1.25h-.25c-1.52 0-2.75 1.23-2.75 2.75v12.5c0 1.52 1.23 2.75 2.75 2.75h7.27c.17-1.64 1.41-3 3.05-3.3-.14-.22-.26-.46-.36-.7h-8.96c-.41 0-.75-.34-.75-.75s.34-.75.75-.75h8.55c-.08-.57-.07-1.16.03-1.75h-8.58c-.41 0-.75-.34-.75-.75s.34-.75.75-.75h9.08c.79-1.62 2.34-2.84 4.14-3.16h.03v-3.34c0-1.52-1.23-2.75-2.75-2.75zm-1 7.5h-9.5c-.41 0-.75-.34-.75-.75s.34-.75.75-.75h9.5c.41 0 .75.34.75.75s-.34.75-.75.75z"/>
        </svg>
        <svg id="calendar" enable-background="new 0 0 512 512" height="512" viewBox="0 0 512 512" width="512" xmlns="http://www.w3.org/2000/svg">
            <g>
                <path d="m512 169c0-33.41 0-56.783 0-59 0-24.813-20.187-45-45-45h-6v55c0 8.284-6.716 15-15 15s-15-6.716-15-15c0-16.839 0-63.232 0-80 0-8.284-6.716-15-15-15s-15 6.716-15 15v25h-100v55c0 8.284-6.716 15-15 15s-15-6.716-15-15c0-16.839 0-63.232 0-80 0-8.284-6.716-15-15-15s-15 6.716-15 15v25h-100v55c0 8.284-6.716 15-15 15s-15-6.716-15-15c0-16.839 0-63.232 0-80 0-8.284-6.716-15-15-15s-15 6.716-15 15v25h-36c-24.813 0-45 20.187-45 45v59z"/>
                <path d="m0 199v243c0 24.813 20.187 45 45 45h422c24.813 0 45-20.187 45-45 0-6.425 0-146.812 0-243-9.335 0-506.836 0-512 0zm144 208h-32c-8.284 0-15-6.716-15-15s6.716-15 15-15h32c8.284 0 15 6.716 15 15s-6.716 15-15 15zm0-64h-32c-8.284 0-15-6.716-15-15s6.716-15 15-15h32c8.284 0 15 6.716 15 15s-6.716 15-15 15zm0-64h-32c-8.284 0-15-6.716-15-15s6.716-15 15-15h32c8.284 0 15 6.716 15 15s-6.716 15-15 15zm128 128h-32c-8.284 0-15-6.716-15-15s6.716-15 15-15h32c8.284 0 15 6.716 15 15s-6.716 15-15 15zm0-64h-32c-8.284 0-15-6.716-15-15s6.716-15 15-15h32c8.284 0 15 6.716 15 15s-6.716 15-15 15zm0-64h-32c-8.284 0-15-6.716-15-15s6.716-15 15-15h32c8.284 0 15 6.716 15 15s-6.716 15-15 15zm128 128h-32c-8.284 0-15-6.716-15-15s6.716-15 15-15h32c8.284 0 15 6.716 15 15s-6.716 15-15 15zm0-64h-32c-8.284 0-15-6.716-15-15s6.716-15 15-15h32c8.284 0 15 6.716 15 15s-6.716 15-15 15zm0-64h-32c-8.284 0-15-6.716-15-15s6.716-15 15-15h32c8.284 0 15 6.716 15 15s-6.716 15-15 15z"/>
            </g>
        </svg>
        <svg version="1.1" id="shop" xmlns="http://www.w3.org/2000/svg" xmlns:xlink="http://www.w3.org/1999/xlink" x="0px" y="0px" viewBox="0 0 512 512" style="enable-background:new 0 0 512 512;" xml:space="preserve">
            <g>
                <g>
                    <path d="M304,128h-48V96c0-52.928-43.072-96-96-96c-52.928,0-96,43.072-96,96v32H16c-8.832,0-16,7.168-16,16v304
                        c0,35.296,28.704,64,64,64h112c8.832,0,16-7.168,16-16c0-8.832-7.168-16-16-16H64c-17.664,0-32-14.368-32-32V160h32v16
                        c0,8.832,7.168,16,16,16c8.832,0,16-7.168,16-16v-16h128v16c0,8.832,7.168,16,16,16c8.832,0,16-7.168,16-16v-16h32v16
                        c0,8.832,7.168,16,16,16c8.832,0,16-7.168,16-16v-32C320,135.168,312.832,128,304,128z M224,128H96V96c0-35.296,28.704-64,64-64
                        s64,28.704,64,64V128z"/>
                </g>
            </g>
            <g>
                <g>
                    <path d="M496,256h-49.632c-7.424-36.48-39.744-64-78.368-64s-70.944,27.52-78.368,64H240c-8.832,0-16,7.168-16,16v176
                        c0,35.296,28.704,64,64,64h160c35.296,0,64-28.704,64-64V272C512,263.168,504.832,256,496,256z M368,224
                        c20.832,0,38.432,13.408,45.056,32h-90.112C329.568,237.408,347.168,224,368,224z M480,448c0,17.632-14.336,32-32,32H288
                        c-17.664,0-32-14.368-32-32V288h32v16c0,8.832,7.168,16,16,16c8.832,0,16-7.168,16-16v-16h96v16c0,8.832,7.168,16,16,16
                        c8.832,0,16-7.168,16-16v-16h32V448z"/>
                </g>
            </g>
        </svg>
        <svg id="dashboard" enable-background="new 0 0 24 24" height="512" viewBox="0 0 24 24" width="512" xmlns="http://www.w3.org/2000/svg">
            <path d="m22.25 0h-20.5c-.965 0-1.75.785-1.75 1.75v2.5c0 .965.785 1.75 1.75 1.75h20.5c.965 0 1.75-.785 1.75-1.75v-2.5c0-.965-.785-1.75-1.75-1.75z"/>
            <path d="m1.75 24h7.5c.965 0 1.75-.785 1.75-1.75v-12.5c0-.965-.785-1.75-1.75-1.75h-7.5c-.965 0-1.75.785-1.75 1.75v12.5c0 .965.785 1.75 1.75 1.75z"/>
            <path d="m22.25 8h-7.5c-.965 0-1.75.785-1.75 1.75v3.5c0 .965.785 1.75 1.75 1.75h7.5c.965 0 1.75-.785 1.75-1.75v-3.5c0-.965-.785-1.75-1.75-1.75z"/>
            <path d="m22.25 17h-7.5c-.965 0-1.75.785-1.75 1.75v3.5c0 .965.785 1.75 1.75 1.75h7.5c.965 0 1.75-.785 1.75-1.75v-3.5c0-.965-.785-1.75-1.75-1.75z"/>
        </svg>
        <svg version="1.1" id="vault" xmlns="http://www.w3.org/2000/svg" xmlns:xlink="http://www.w3.org/1999/xlink" x="0px" y="0px"
                viewBox="0 0 512 512" style="enable-background:new 0 0 512 512;" xml:space="preserve">
            <g>
                <g>
                    <rect x="109.54" y="168.04" width="18.309" height="41.23"/>
                </g>
            </g>
            <g>
                <g>
                    <rect x="384.15" y="168.04" width="18.309" height="41.23"/>
                </g>
            </g>
            <g>
                <g>
                    <path d="M432.461,168.036v56.231c0,8.284-6.716,15-15,15h-48.309c-8.284,0-15-6.716-15-15v-56.231H157.847v56.231
                        c0,8.284-6.716,15-15,15H94.539c-8.284,0-15-6.716-15-15v-56.231h-57.41V416.15c0,8.284,6.716,15,15,15h81.565
                        c3.756,0,7.375-1.409,10.143-3.949l12.034-11.045c5.041-4.626,11.585-7.174,18.427-7.174h193.407
                        c6.842,0,13.386,2.547,18.426,7.173l12.036,11.046c2.767,2.54,6.387,3.949,10.143,3.949h81.564c8.284,0,15-6.716,15-15V168.036
                        H432.461z"/>
                </g>
            </g>
            <g>
                <g>
                    <path d="M497,80.85H15c-8.284,0-15,6.716-15,15v27.186c0,8.284,6.716,15,15,15h482c8.284,0,15-6.716,15-15V95.85
                        C512,87.566,505.284,80.85,497,80.85z"/>
                </g>
            </g>
        </svg>
        <svg id="activity" enable-background="new 0 0 512 512" height="512" viewBox="0 0 512 512" width="512" xmlns="http://www.w3.org/2000/svg">
            <g>
                <path d="m276 138v109.716l72.809 72.809c7.811 7.811 7.811 20.474 0 28.284-7.811 7.811-20.474 7.81-28.284 0l-78.667-78.667c-3.751-3.75-5.858-8.838-5.858-14.142v-118c0-11.046 8.954-20 20-20s20 8.954 20 20zm58.667-138h-157.334c-41.89 0-83.217 14.722-116.284 43.478v-23.478c0-11.046-8.954-20-20-20s-20 8.954-20 20v78.667c0 11.046 9.031 20 20 20h78.667c11.046 0 20-8.954 20-20s-8.954-20-20-20h-37.833c25.314-24.405 59.485-38.667 95.45-38.667h157.333c75.727 0 137.334 61.607 137.334 137.333v157.333c0 75.727-61.607 137.334-137.333 137.334h-157.334c-75.726 0-137.333-61.607-137.333-137.333v-78.667c0-11.046-8.954-20-20-20s-20 8.954-20 20v78.667c0 97.782 79.551 177.333 177.333 177.333h157.333c97.783 0 177.334-79.551 177.334-177.333v-157.334c0-97.782-79.551-177.333-177.333-177.333z"/>
            </g>
        </svg>
        <svg version="1.1" id="inbox" xmlns="http://www.w3.org/2000/svg" xmlns:xlink="http://www.w3.org/1999/xlink" x="0px" y="0px"
            viewBox="0 0 512 512" style="enable-background:new 0 0 512 512;" xml:space="preserve">
            <g>
                <g>
                    <path d="M507.49,101.721L352.211,256L507.49,410.279c2.807-5.867,4.51-12.353,4.51-19.279V121
                        C512,114.073,510.297,107.588,507.49,101.721z"/>
                </g>
            </g>
            <g>
                <g>
                    <path d="M467,76H45c-6.927,0-13.412,1.703-19.279,4.51l198.463,197.463c17.548,17.548,46.084,17.548,63.632,0L486.279,80.51
                        C480.412,77.703,473.927,76,467,76z"/>
                </g>
            </g>
            <g>
                <g>
                    <path d="M4.51,101.721C1.703,107.588,0,114.073,0,121v270c0,6.927,1.703,13.413,4.51,19.279L159.789,256L4.51,101.721z"/>
                </g>
            </g>
            <g>
                <g>
                    <path d="M331,277.211l-21.973,21.973c-29.239,29.239-76.816,29.239-106.055,0L181,277.211L25.721,431.49
                        C31.588,434.297,38.073,436,45,436h422c6.927,0,13.412-1.703,19.279-4.51L331,277.211z"/>
                </g>
            </g>
        </svg>
    </defs>
</svg>